# xmcd
#
# Track frame offsets: 
#        150
#        23423
#        44047
#        59660
#        78615
#        90824
#        103240
#        117068
#        126214
#        147680
#        172923
#
# Disc length: 3504 seconds
#
# Revision: 1
# Processed by: cddbd v1.5.2PL0 Copyright (c) Steve Scherf et al.
# Submitted via: ExactAudioCopyFreeDBPlugin 1.0
#
DISCID=930dae0b
DTITLE=Shakin' Dudi Orchestra - Swing Revival
DYEAR=1999
DGENRE=Big Band
TTITLE0=Gdy Wracam Późno
TTITLE1=Tak Dobrze Mi Tu
TTITLE2=Mniam Mniam Mniam
TTITLE3=Gdybyś Miała
TTITLE4=To My Ułani
TTITLE5=Płać Płać Płać
TTITLE6=Taka Przebojowa
TTITLE7=Za Dziesięć Minut Trzynasta
TTITLE8=Oh Ziuta
TTITLE9=Au Szalalala
TTITLE10=Data Track
EXTD=
EXTT0=
EXTT1=
EXTT2=
EXTT3=
EXTT4=
EXTT5=
EXTT6=
EXTT7=
EXTT8=
EXTT9=
EXTT10=
PLAYORDER=
